<svg xmlns="http://www.w3.org/2000/svg" xmlns:xlink="http://www.w3.org/1999/xlink" version="1.1" x="0px" y="0px" viewBox="0 0 100 125" style="enable-background:new 0 0 100 100;" xml:space="preserve"><path d="M79.1,40.1L50.6,27.7c-0.4-0.2-0.8-0.2-1.2,0L20.9,40.1c-0.5,0.2-0.9,0.8-0.9,1.4s0.4,1.1,0.9,1.4l28.5,12.5  c0.2,0.1,0.4,0.1,0.6,0.1c0.2,0,0.4,0,0.6-0.1l12.6-5.5V60h-0.3c-0.6,0-1.2,0.4-1.4,1c-0.6,1.7-2.3,7.3-0.3,9.8  c0.9,1,2.1,1.6,3.5,1.7c0,0,0,0,0.1,0s0,0,0.1,0c1.4-0.1,2.6-0.7,3.5-1.7c2.1-2.4,0.3-8.1-0.3-9.8c-0.2-0.6-0.8-1-1.4-1h-0.3V48.5  l12.9-5.7c0.5-0.2,0.9-0.8,0.9-1.4S79.6,40.4,79.1,40.1z M65.9,68.8c-0.3,0.4-0.7,0.6-1.2,0.6c-0.5,0-0.9-0.2-1.2-0.6  c-0.6-0.7-0.2-3.4,0.5-5.9h1.5C66.1,65.4,66.5,68.2,65.9,68.8z M64.7,45.9l-9.6-4.2c0-0.1,0-0.1,0-0.2c0-2.1-2.3-3.8-5.1-3.8  c-2.9,0-5.1,1.7-5.1,3.8s2.3,3.8,5.1,3.8c1.4,0,2.6-0.4,3.5-1l7.4,3.3L50,52.3L25.2,41.5L50,30.7l24.8,10.8L64.7,45.9z M52.1,41.5  C52.1,41.5,52.1,41.6,52.1,41.5c-0.1,0.1-0.1,0.1-0.1,0.2c-0.2,0.3-1,0.7-2,0.7c-1.3,0-2.1-0.6-2.1-0.8c0-0.2,0.8-0.8,2.1-0.8  C51.3,40.7,52.1,41.3,52.1,41.5z M71.4,48.4l3-1.3v9.1c0,2.7-1.4,4.9-3.8,6.6c-0.2-0.9-0.5-1.8-0.8-2.6c-0.1-0.2-0.1-0.3-0.2-0.5  c1.1-1,1.8-2.2,1.8-3.6V48.4z M50,64.7c2.9,0,5.8-0.2,8.5-0.7c-0.2,1-0.3,2.1-0.3,3.1c-2.6,0.4-5.4,0.6-8.2,0.6  c-6.2,0-12-0.9-16.3-2.6c-6.7-2.6-8.1-6.3-8.1-8.9v-9.1l3,1.3v7.8C28.6,61.7,39.6,64.7,50,64.7z"/><text x="0" y="115" fill="#000000" font-size="5px" font-weight="bold" font-family="'Helvetica Neue', Helvetica, Arial-Unicode, Arial, Sans-serif">Created by Mello</text><text x="0" y="120" fill="#000000" font-size="5px" font-weight="bold" font-family="'Helvetica Neue', Helvetica, Arial-Unicode, Arial, Sans-serif">from the Noun Project</text></svg>