<svg xmlns="http://www.w3.org/2000/svg" xmlns:xlink="http://www.w3.org/1999/xlink" version="1.1" x="0px" y="0px" viewBox="0 0 100 125" style="enable-background:new 0 0 100 100;" xml:space="preserve"><g><path d="M76.4,13L75,11.6l-5,4.7c-3.2-2.9-7-5.2-11-6.8c0,0,0,0,0,0l0,0C54.7,7.9,50.3,7,45.6,7C25.4,7,8.9,23.5,8.9,43.7   c0,8.3,2.8,15.9,7.4,22.1l-5,4.6l1.2,1.5c7.7,9.1,18.7,14.5,30.5,15.2V90H32c-1.1,0-2,0.9-2,2s0.9,2,2,2h25c1.1,0,2-0.9,2-2   s-0.9-2-2-2H47v-2.8c23.3-0.7,42.1-19.9,42.1-43.4C89.1,32.1,84.6,21.2,76.4,13z M45.6,11c3.4,0,6.8,0.5,9.9,1.5   c0,0.2-0.1,0.4-0.2,0.5c-1.2,2.5,0.4,3.9,1,4.5c0.3,0.3,0.6,0.5,0.8,0.9c0.2,0.3,0.6,1.1-1.4,3.1c-2.4,2.4-3.7,6.3-1.9,8.2   c0.5,0.7,1.9,4.2,2.2,5.8c-0.7,0.4-1.6,0-3.8-1.6c-0.4-0.3-0.8-0.6-1.2-0.8c-1.1-0.7-1.9-1.9-2.6-3.1c-0.9-1.4-1.7-2.6-3-3.3   c-2.1-1-4,0.7-6.2,2.8c-1.4,1.3-3.5,3.3-4.6,3.3c-1.3,0-2-1.3-2.8-3c-0.4-0.7-0.7-1.4-1.1-1.9c-0.8-0.8-2.7-3.4-3-4.3   c-0.1-0.5-0.3-1-0.8-1.4c-0.5-0.4-1.1-0.9-5.5-0.3C27.2,15.2,35.9,11,45.6,11z M17.8,26.6c2.4-0.4,5-0.8,6.3-0.9   c1.1,2.2,3.6,5,3.6,5c0.1,0.1,0.3,0.5,0.4,0.9c0.9,1.8,2.5,5.2,6.4,5.2c2.7,0,5.2-2.3,7.4-4.4c0.6-0.6,1.5-1.4,2-1.8   c0.3,0.4,0.7,1,1.1,1.5c0.9,1.4,2,3.1,3.8,4.3c0.4,0.2,0.7,0.5,1.1,0.8c1.4,1,3.5,2.5,5.7,2.5c1.2,0,2.5-0.5,3.8-1.7   c2-2-1.4-9-2.5-10.6c0-0.5,0.5-1.8,1.6-2.9c2.7-2.7,3.4-5.3,2.2-7.7c-0.5-1-1.2-1.7-1.7-2.1c0.1-0.2,0.1-0.4,0.2-0.6   c11.3,5.2,19.1,16.6,19.1,29.7c0,5-1.1,9.7-3.1,13.9l-4.9-1.4c-0.5-0.1-1-0.1-1.4,0.1l-3.2,1.6h-3.9l-2.1-2.8   c-0.1-0.1-0.1-0.1-0.2-0.2l-2.7-2.7c-0.5-0.5-1.2-0.7-1.9-0.5l-3.6,0.9c-0.6,0.1-1,0.5-1.3,1c-0.1,0.2-0.3,0.5-0.4,0.7   c-0.7-0.1-1.8-0.4-2.9-0.6l-2.3-3c-0.4-0.5-1-0.8-1.6-0.8c-0.4,0-2.7,0.1-4.1,1.5c-0.1,0.1-0.2,0.2-0.3,0.3c0,0,0,0-0.1,0h-2.7   c-1.1,0-2,0.9-2,2v4.5c0,2.9,3.5,2.9,4.7,2.9c0.4,0,2,0.4,3.5,0.7c0.3,0.3,0.6,0.7,0.8,1c-0.1,0.1-0.1,0.3-0.2,0.4   c-0.3,0.5-0.6,1.2-0.7,2c-0.4-0.1-1.1-0.4-1.6-0.6c-0.1,0-0.2-0.1-0.3-0.1L37,63.5c-0.6-0.2-1.3-0.1-1.8,0.3s-0.8,1-0.8,1.6l0,1.8   c0,0.1-0.1,0.4-0.1,0.6c-0.2,0.7-0.4,1.6-0.1,2.4c0,0,0,0,0,0c-0.1,0.1-0.2,0.2-0.3,0.3c0,0,0,0-0.1,0h-0.9c-1.1,0-2,0.9-2,2v0.3   c-10.6-5.4-17.9-16.4-17.9-29.1C12.9,37.4,14.7,31.6,17.8,26.6z M39.5,69.3c-0.3-0.6-0.7-1-1.2-1.2c0,0,0,0,0,0l0.1,0   c0.7,0.4,2.3,1,3.5,1c2,0,3.8-1.8,3.8-3.7c0-0.1,0.2-0.4,0.2-0.5c0.3-0.6,0.7-1.3,0.7-2.2c0-1.1-0.8-2.5-2.4-4.1   c-0.3-0.3-0.6-0.4-0.9-0.5c-1.2-0.3-4-1-5-1c-0.1,0-0.4,0-0.7,0v-1.4h0.7c1.6,0,2-0.3,3.2-1.5c0.1-0.1,0.2-0.1,0.4-0.2l2,2.7   c0.3,0.4,0.7,0.6,1.1,0.7c1.2,0.3,4,1,5,1c1.4,0,2.5-1.1,3.1-2.1l1.7-0.4l1.8,1.8l2.6,3.5c0.4,0.5,1,0.8,1.6,0.8h5.4   c0.3,0,0.6-0.1,0.9-0.2l2.9-1.5l3.3,0.9c-5.8,9.1-16,15.2-27.6,15.2c-3.8,0-7.5-0.7-10.8-1.9v-0.1c0.7-0.1,1.2-0.5,2-1.3   c0.5-0.1,1.2-0.3,1.9-1C39.8,71,39.8,70,39.5,69.3z M45.6,83.2c-10.9,0-21.3-4.5-28.8-12.5l2-1.9c6.7,7.1,16.2,11.6,26.7,11.6   c20.2,0,36.7-16.5,36.7-36.7c0-9.5-3.6-18.1-9.5-24.6l2-1.9c6.6,7.3,10.2,16.6,10.2,26.5C85.1,65.5,67.4,83.2,45.6,83.2z"/><path d="M22.9,58.1c-0.4,0.8-0.2,1.7,0.4,2.3c0.2,0.2,1.6,1.5,3.2,1.5c1.7,0,2.6-1.6,3.4-3c0.2-0.4,0.6-1,0.7-1.2   c0.5-0.5,1.1-1.1,1.5-1.9c0.6-1.3,0.4-2.6-0.6-3.6c-0.4-0.4-1.4-2.7-2.3-4.8c-0.2-0.5-0.7-1-1.2-1.2l-2.7-0.9   c-0.2-0.1-0.4-0.1-0.6-0.1H21c-1,0-1.8,0.7-2,1.6l-0.9,4.5c-0.2,1,0.4,2.1,1.5,2.3c0.8,0.2,1.8,0.5,2.3,0.8   c0.2,0.5,0.7,1.1,1.6,1.4C23.4,56.9,23,57.8,22.9,58.1z M22.5,50.4l0.2-1.1h1.6l1.5,0.5c0.6,1.5,1.5,3.5,2.3,4.6   c-0.1,0.2-0.3,0.3-0.4,0.4c-0.1,0.1-0.1,0.1-0.2,0.2c-0.1-1.1-0.5-2.3-2.2-2.8C25,51.7,24.1,51,22.5,50.4z"/></g><text x="0" y="115" fill="#000000" font-size="5px" font-weight="bold" font-family="'Helvetica Neue', Helvetica, Arial-Unicode, Arial, Sans-serif">Created by Trident</text><text x="0" y="120" fill="#000000" font-size="5px" font-weight="bold" font-family="'Helvetica Neue', Helvetica, Arial-Unicode, Arial, Sans-serif">from the Noun Project</text></svg>