<svg xmlns="http://www.w3.org/2000/svg" xmlns:xlink="http://www.w3.org/1999/xlink" version="1.1" x="0px" y="0px" viewBox="0 0 100 125" enable-background="new 0 0 100 100" xml:space="preserve"><path d="M80,8C68.838,8,37.227,8,26,8c-6.627,0-12,5.372-12,12v3h-3c-1.657,0-3,1.343-3,3c0,1.657,1.343,3,3,3h3v42  h-3c-1.657,0-3,1.343-3,3c0,1.657,1.343,3,3,3h3v3c0,6.627,5.373,12,12,12h54c3.314,0,6-2.686,6-6V14C86,10.686,83.314,8,80,8z   M68,14v23.199l-1.649-1.737c-1.133-1.193-2.706-1.869-4.351-1.869s-3.218,0.675-4.351,1.869L56,37.199V14H68z M80,86H26  c-3.308,0-6-2.692-6-6v-3h6.832c1.039,1.786,2.953,3,5.168,3c3.314,0,6-2.686,6-6c0-3.314-2.686-6-6-6c-2.215,0-4.128,1.214-5.168,3  H20V29h6.832c1.039,1.786,2.953,3,5.168,3c3.314,0,6-2.686,6-6c0-3.314-2.686-6-6-6c-2.215,0-4.128,1.214-5.168,3H20v-3  c0-3.308,2.692-6,6-6h24v34.417c0,1.404,1.614,2.113,2.561,1.117L62,39.593l9.439,9.941C72.386,50.531,74,49.821,74,48.417V14h6V86z  "/><path d="M74,59c0,1.657-1.343,3-3,3H53c-1.657,0-3-1.343-3-3c0-1.657,1.343-3,3-3h18C72.657,56,74,57.343,74,59z"/><path d="M74,74c0,1.657-1.343,3-3,3H53c-1.657,0-3-1.343-3-3c0-1.657,1.343-3,3-3h18C72.657,71,74,72.343,74,74z"/><text x="0" y="115" fill="#000000" font-size="5px" font-weight="bold" font-family="'Helvetica Neue', Helvetica, Arial-Unicode, Arial, Sans-serif">Created by Ayub Irawan</text><text x="0" y="120" fill="#000000" font-size="5px" font-weight="bold" font-family="'Helvetica Neue', Helvetica, Arial-Unicode, Arial, Sans-serif">from the Noun Project</text></svg>