<svg xmlns="http://www.w3.org/2000/svg" data-name="Layer 1" viewBox="0 0 100 125" x="0px" y="0px"><title>136all</title><path d="M42.65,59.23H30a2,2,0,0,0-2,2V73a2,2,0,0,0,2,2H42.65a2,2,0,0,0,2-2V61.23A2,2,0,0,0,42.65,59.23ZM40.65,71H32V63.23h8.66Z"/><path d="M55.51,11.38a8,8,0,0,0-10.19,0L3.24,45.8a2,2,0,1,0,2.54,3.09l7.74-6.34,5.09,40.92a8,8,0,0,0,7.94,7H73.46a8,8,0,0,0,7.94-7l5.12-41,7.69,6.42a2,2,0,0,0,2.56-3.07Zm-1.24,75.1V67.06a5.88,5.88,0,1,1,11.75,0V86.48ZM77.43,83a4,4,0,0,1-4,3.5H70V67.06a9.88,9.88,0,1,0-19.75,0V86.48H26.55a4,4,0,0,1-4-3.51l-5.4-43.42L47.85,14.43a4,4,0,0,1,5.1,0l29.92,25Z"/><text x="0" y="115" fill="#000000" font-size="5px" font-weight="bold" font-family="'Helvetica Neue', Helvetica, Arial-Unicode, Arial, Sans-serif">Created by Drishya</text><text x="0" y="120" fill="#000000" font-size="5px" font-weight="bold" font-family="'Helvetica Neue', Helvetica, Arial-Unicode, Arial, Sans-serif">from the Noun Project</text></svg>