<svg id="tsb-ani-logo" width="120" height="120" viewBox="0 0 120 120" preserveAspectRatio="xMinYMin meet"><g transform="translate(60,60)"><g><path class="plane" d="M-47.199999999999996 6.6000000000000005L-39 30.8L28.999999999999996 -40Z" style="fill: transparent;"></path><path class="plane" d="M-47.199999999999996 6.6000000000000005L28.999999999999996 -40L39.800000000000004 20.8Z" style="fill: transparent;"></path><path class="plane" d="M-47.199999999999996 6.6000000000000005L39.800000000000004 20.8L48.8 1.4000000000000001L-28.4 -32.6Z" style="fill: transparent;"></path></g><g><line class="edge" x1="-47.199999999999996" x2="-39" y1="6.6000000000000005" y2="30.8"></line><line class="edge" x1="-39" x2="28.999999999999996" y1="30.8" y2="-40"></line><line class="edge" x1="-47.199999999999996" x2="28.999999999999996" y1="6.6000000000000005" y2="-40"></line><line class="edge" x1="-47.199999999999996" x2="39.800000000000004" y1="6.6000000000000005" y2="20.8"></line><line class="edge" x1="28.999999999999996" x2="39.800000000000004" y1="-40" y2="20.8"></line><line class="edge" x1="39.800000000000004" x2="48.8" y1="20.8" y2="1.4000000000000001"></line><line class="edge" x1="48.8" x2="-28.4" y1="1.4000000000000001" y2="-32.6"></line><line class="edge" x1="-47.199999999999996" x2="-28.4" y1="6.6000000000000005" y2="-32.6"></line></g><g><line class="hedge" x1="-47.199999999999996" x2="-39" y1="6.6000000000000005" y2="30.8"></line><line class="hedge" x1="-39" x2="28.999999999999996" y1="30.8" y2="-40"></line><line class="hedge" x1="-47.199999999999996" x2="28.999999999999996" y1="6.6000000000000005" y2="-40"></line><line class="hedge" x1="-47.199999999999996" x2="39.800000000000004" y1="6.6000000000000005" y2="20.8"></line><line class="hedge" x1="28.999999999999996" x2="39.800000000000004" y1="-40" y2="20.8"></line><line class="hedge" x1="39.800000000000004" x2="48.8" y1="20.8" y2="1.4000000000000001"></line><line class="hedge" x1="48.8" x2="-28.4" y1="1.4000000000000001" y2="-32.6"></line><line class="hedge" x1="-47.199999999999996" x2="-28.4" y1="6.6000000000000005" y2="-32.6"></line></g></g></svg>