<svg xmlns="http://www.w3.org/2000/svg" xmlns:xlink="http://www.w3.org/1999/xlink" xmlns:a="http://ns.adobe.com/AdobeSVGViewerExtensions/3.0/" version="1.1" x="0px" y="0px" viewBox="-2.957 -20.396 100 125" overflow="visible" enable-background="new -2.957 -20.396 100 100" xml:space="preserve"><path fill="#000000" d="M93.499,55.066h-2.185L80.552,1.748h0.443c0.481,0,0.873-0.391,0.873-0.874S81.477,0,80.995,0H12.161  c-0.482,0-0.874,0.391-0.874,0.874s0.391,0.874,0.874,0.874h0.564L1.962,55.066H0.929C0.416,55.066,0,55.483,0,55.995  c0,0.513,0.416,0.929,0.929,0.929h4.043c0.513,0,0.928-0.416,0.928-0.929c0-0.512-0.415-0.929-0.928-0.929H3.738L14.431,2.134  l-0.17,53.147h-1.061c-0.413,0-0.749,0.336-0.749,0.748c0,0.414,0.335,0.75,0.749,0.75h3.26c0.415,0,0.749-0.336,0.749-0.75  c0-0.412-0.334-0.748-0.749-0.748H16.01l0.182-53.511c0-0.007-0.002-0.014-0.002-0.022h8.709v0.168c0,0.686,0.489,1.26,1.135,1.393  v0.492c-0.46,0.128-0.801,0.545-0.801,1.045V5.63c0,0.5,0.341,0.918,0.801,1.046v0.218c-0.46,0.126-0.801,0.546-0.801,1.046v0.784  c0,0.5,0.341,0.918,0.801,1.044v0.22c-0.46,0.126-0.801,0.545-0.801,1.044v0.784c0,0.501,0.341,0.919,0.801,1.046v0.218  c-0.46,0.128-0.801,0.545-0.801,1.045v0.784c0,0.5,0.341,0.918,0.801,1.045v0.22c-0.46,0.128-0.801,0.545-0.801,1.045v0.784  c0,0.5,0.341,0.918,0.801,1.045v0.219c-0.46,0.126-0.801,0.545-0.801,1.044v0.785c0,0.5,0.341,0.917,0.801,1.045v0.219  c-0.46,0.126-0.801,0.545-0.801,1.044v0.784c0,0.5,0.341,0.918,0.801,1.045v0.219c-0.46,0.126-0.801,0.545-0.801,1.045v0.784  c0,0.5,0.341,0.917,0.801,1.044v0.22c-0.46,0.126-0.801,0.545-0.801,1.044v0.785c0,0.499,0.341,0.918,0.801,1.045v0.219  c-0.46,0.127-0.801,0.545-0.801,1.045v0.784c0,0.501,0.341,0.918,0.801,1.046v0.219c-0.46,0.127-0.801,0.545-0.801,1.045v0.783  c0,0.501,0.341,0.919,0.801,1.045v0.22c-0.46,0.128-0.801,0.546-0.801,1.045v0.784c0,0.601,0.488,1.088,1.088,1.088  c0.601,0,1.089-0.487,1.089-1.088v-0.784c0-0.499-0.341-0.917-0.801-1.045v-0.22c0.46-0.126,0.801-0.544,0.801-1.045V35.78  c0-0.5-0.341-0.918-0.801-1.045v-0.219c0.46-0.126,0.801-0.545,0.801-1.046v-0.784c0-0.5-0.341-0.918-0.801-1.045v-0.219  c0.46-0.127,0.801-0.546,0.801-1.045v-0.785c0-0.5-0.341-0.918-0.801-1.046v-0.218c0.46-0.127,0.801-0.545,0.801-1.044V26.5  c0-0.5-0.341-0.919-0.801-1.045v-0.219c0.46-0.127,0.801-0.545,0.801-1.045v-0.784c0-0.5-0.341-0.918-0.801-1.044v-0.219  c0.46-0.127,0.801-0.546,0.801-1.045v-0.785c0-0.499-0.341-0.918-0.801-1.044v-0.219c0.46-0.127,0.801-0.544,0.801-1.045V17.22  c0-0.5-0.341-0.919-0.801-1.045v-0.22c0.46-0.126,0.801-0.544,0.801-1.045v-0.784c0-0.5-0.341-0.917-0.801-1.045v-0.218  c0.46-0.127,0.801-0.545,0.801-1.046v-0.784c0-0.499-0.341-0.918-0.801-1.044V9.77c0.46-0.128,0.801-0.546,0.801-1.046V7.94  c0-0.5-0.341-0.919-0.801-1.046V6.676c0.46-0.127,0.801-0.545,0.801-1.046V4.846c0-0.5-0.341-0.917-0.801-1.045V3.309  c0.647-0.133,1.134-0.707,1.134-1.393V1.748H38.48v0.168c0,0.686,0.488,1.26,1.134,1.393v0.492c-0.46,0.128-0.801,0.545-0.801,1.045  V5.63c0,0.5,0.34,0.918,0.801,1.046v0.218c-0.46,0.126-0.801,0.546-0.801,1.046v0.784c0,0.5,0.34,0.918,0.801,1.044v0.22  c-0.46,0.126-0.801,0.545-0.801,1.044v0.784c0,0.501,0.34,0.919,0.801,1.046v0.218c-0.46,0.128-0.801,0.545-0.801,1.045v0.784  c0,0.5,0.34,0.918,0.801,1.045v0.22c-0.46,0.128-0.801,0.545-0.801,1.045v0.784c0,0.5,0.34,0.918,0.801,1.045v0.219  c-0.46,0.126-0.801,0.545-0.801,1.044v0.785c0,0.5,0.34,0.917,0.801,1.045v0.219c-0.46,0.126-0.801,0.545-0.801,1.044v0.784  c0,0.5,0.34,0.918,0.801,1.045v0.219c-0.46,0.126-0.801,0.545-0.801,1.045v0.784c0,0.5,0.34,0.917,0.801,1.044v0.22  c-0.46,0.126-0.801,0.545-0.801,1.044v0.785c0,0.499,0.34,0.918,0.801,1.045v0.219c-0.46,0.127-0.801,0.545-0.801,1.045v0.784  c0,0.501,0.34,0.918,0.801,1.046v0.219c-0.46,0.127-0.801,0.545-0.801,1.045v0.783c0,0.501,0.34,0.919,0.801,1.045v0.22  c-0.46,0.128-0.801,0.546-0.801,1.045v0.784c0,0.601,0.489,1.088,1.089,1.088s1.088-0.487,1.088-1.088v-0.784  c0-0.499-0.341-0.917-0.801-1.045v-0.22c0.46-0.126,0.801-0.544,0.801-1.045V35.78c0-0.5-0.341-0.918-0.801-1.045v-0.219  c0.46-0.126,0.801-0.545,0.801-1.046v-0.784c0-0.5-0.341-0.918-0.801-1.045v-0.219c0.46-0.127,0.801-0.546,0.801-1.045v-0.785  c0-0.5-0.341-0.918-0.801-1.046v-0.218c0.46-0.127,0.801-0.545,0.801-1.044V26.5c0-0.5-0.341-0.919-0.801-1.045v-0.219  c0.46-0.127,0.801-0.545,0.801-1.045v-0.784c0-0.5-0.341-0.918-0.801-1.044v-0.219c0.46-0.127,0.801-0.546,0.801-1.045v-0.785  c0-0.499-0.341-0.918-0.801-1.044v-0.219c0.46-0.127,0.801-0.544,0.801-1.045V17.22c0-0.5-0.341-0.919-0.801-1.045v-0.22  c0.46-0.126,0.801-0.544,0.801-1.045v-0.784c0-0.5-0.341-0.917-0.801-1.045v-0.218c0.46-0.127,0.801-0.545,0.801-1.046v-0.784  c0-0.499-0.341-0.918-0.801-1.044V9.77c0.46-0.128,0.801-0.546,0.801-1.046V7.94c0-0.5-0.341-0.919-0.801-1.046V6.676  c0.46-0.127,0.801-0.545,0.801-1.046V4.846c0-0.5-0.341-0.917-0.801-1.045V3.309c0.647-0.133,1.134-0.707,1.134-1.393V1.748h10.568  v0.168c0,0.686,0.488,1.26,1.135,1.393v0.492c-0.459,0.128-0.801,0.545-0.801,1.045V5.63c0,0.5,0.342,0.918,0.801,1.046v0.218  c-0.459,0.126-0.801,0.546-0.801,1.046v0.784c0,0.5,0.342,0.918,0.801,1.044v0.22c-0.459,0.126-0.801,0.545-0.801,1.044v0.784  c0,0.501,0.342,0.919,0.801,1.046v0.218c-0.459,0.128-0.801,0.545-0.801,1.045v0.784c0,0.5,0.342,0.918,0.801,1.045v0.22  c-0.459,0.128-0.801,0.545-0.801,1.045v0.784c0,0.5,0.342,0.918,0.801,1.045v0.219c-0.459,0.126-0.801,0.545-0.801,1.044v0.785  c0,0.5,0.342,0.917,0.801,1.045v0.219c-0.459,0.126-0.801,0.545-0.801,1.044v0.784c0,0.5,0.342,0.918,0.801,1.045v0.219  C52.568,25.581,52.227,26,52.227,26.5v0.784c0,0.5,0.342,0.917,0.801,1.044v0.22c-0.459,0.126-0.801,0.545-0.801,1.044v0.785  c0,0.499,0.342,0.918,0.801,1.045v0.219c-0.459,0.127-0.801,0.545-0.801,1.045v0.784c0,0.501,0.342,0.918,0.801,1.046v0.219  c-0.459,0.127-0.801,0.545-0.801,1.045v0.783c0,0.501,0.342,0.919,0.801,1.045v0.22c-0.459,0.128-0.801,0.546-0.801,1.045v0.784  c0,0.601,0.49,1.088,1.089,1.088s1.089-0.487,1.089-1.088v-0.784c0-0.499-0.343-0.917-0.802-1.045v-0.22  c0.459-0.126,0.802-0.544,0.802-1.045V35.78c0-0.5-0.343-0.918-0.802-1.045v-0.219c0.459-0.126,0.802-0.545,0.802-1.046v-0.784  c0-0.5-0.343-0.918-0.802-1.045v-0.219c0.459-0.127,0.802-0.546,0.802-1.045v-0.785c0-0.5-0.343-0.918-0.802-1.046v-0.218  c0.459-0.127,0.802-0.545,0.802-1.044V26.5c0-0.5-0.343-0.919-0.802-1.045v-0.219c0.459-0.127,0.802-0.545,0.802-1.045v-0.784  c0-0.5-0.343-0.918-0.802-1.044v-0.219c0.459-0.127,0.802-0.546,0.802-1.045v-0.785c0-0.499-0.343-0.918-0.802-1.044v-0.219  c0.459-0.127,0.802-0.544,0.802-1.045V17.22c0-0.5-0.343-0.919-0.802-1.045v-0.22c0.459-0.126,0.802-0.544,0.802-1.045v-0.784  c0-0.5-0.343-0.917-0.802-1.045v-0.218c0.459-0.127,0.802-0.545,0.802-1.046v-0.784c0-0.499-0.343-0.918-0.802-1.044V9.77  c0.459-0.128,0.802-0.546,0.802-1.046V7.94c0-0.5-0.343-0.919-0.802-1.046V6.676c0.459-0.127,0.802-0.545,0.802-1.046V4.846  c0-0.5-0.343-0.917-0.802-1.045V3.309c0.646-0.133,1.136-0.707,1.136-1.393V1.748h10.737v0.168c0,0.686,0.487,1.26,1.133,1.393  v0.492c-0.459,0.128-0.801,0.545-0.801,1.045V5.63c0,0.5,0.342,0.918,0.801,1.046v0.218c-0.459,0.126-0.801,0.546-0.801,1.046v0.784  c0,0.5,0.342,0.918,0.801,1.044v0.22c-0.459,0.126-0.801,0.545-0.801,1.044v0.784c0,0.501,0.342,0.919,0.801,1.046v0.218  c-0.459,0.128-0.801,0.545-0.801,1.045v0.784c0,0.5,0.342,0.918,0.801,1.045v0.22c-0.459,0.128-0.801,0.545-0.801,1.045v0.784  c0,0.5,0.342,0.918,0.801,1.045v0.219c-0.459,0.126-0.801,0.545-0.801,1.044v0.785c0,0.5,0.342,0.917,0.801,1.045v0.219  c-0.459,0.126-0.801,0.545-0.801,1.044v0.784c0,0.5,0.342,0.918,0.801,1.045v0.219C66.149,25.581,65.808,26,65.808,26.5v0.784  c0,0.5,0.342,0.917,0.801,1.044v0.22c-0.459,0.126-0.801,0.545-0.801,1.044v0.785c0,0.499,0.342,0.918,0.801,1.045v0.219  c-0.459,0.127-0.801,0.545-0.801,1.045v0.784c0,0.501,0.342,0.918,0.801,1.046v0.219c-0.459,0.127-0.801,0.545-0.801,1.045v0.783  c0,0.501,0.342,0.919,0.801,1.045v0.22c-0.459,0.128-0.801,0.546-0.801,1.045v0.784c0,0.601,0.489,1.088,1.089,1.088  c0.601,0,1.089-0.487,1.089-1.088v-0.784c0-0.499-0.341-0.917-0.8-1.045v-0.22c0.459-0.126,0.8-0.544,0.8-1.045V35.78  c0-0.5-0.341-0.918-0.8-1.045v-0.219c0.459-0.126,0.8-0.545,0.8-1.046v-0.784c0-0.5-0.341-0.918-0.8-1.045v-0.219  c0.459-0.127,0.8-0.546,0.8-1.045v-0.785c0-0.5-0.341-0.918-0.8-1.046v-0.218c0.459-0.127,0.8-0.545,0.8-1.044V26.5  c0-0.5-0.341-0.919-0.8-1.045v-0.219c0.459-0.127,0.8-0.545,0.8-1.045v-0.784c0-0.5-0.341-0.918-0.8-1.044v-0.219  c0.459-0.127,0.8-0.546,0.8-1.045v-0.785c0-0.499-0.341-0.918-0.8-1.044v-0.219c0.459-0.127,0.8-0.544,0.8-1.045V17.22  c0-0.5-0.341-0.919-0.8-1.045v-0.22c0.459-0.126,0.8-0.544,0.8-1.045v-0.784c0-0.5-0.341-0.917-0.8-1.045v-0.218  c0.459-0.127,0.8-0.545,0.8-1.046v-0.784c0-0.499-0.341-0.918-0.8-1.044V9.77c0.459-0.128,0.8-0.546,0.8-1.046V7.94  c0-0.5-0.341-0.919-0.8-1.046V6.676c0.459-0.127,0.8-0.545,0.8-1.046V4.846c0-0.5-0.341-0.917-0.8-1.045V3.309  c0.646-0.133,1.133-0.707,1.133-1.393V1.748h8.798c0,0.008-0.002,0.016-0.002,0.022l0.184,53.511h-0.451  c-0.413,0-0.748,0.336-0.748,0.748c0,0.414,0.335,0.75,0.748,0.75h3.26c0.414,0,0.749-0.336,0.749-0.75  c0-0.412-0.335-0.748-0.749-0.748h-1.06L78.882,2.333L89.54,55.066h-0.085c-0.513,0-0.927,0.417-0.927,0.929  c0,0.513,0.414,0.929,0.927,0.929h4.044c0.514,0,0.928-0.416,0.928-0.929C94.427,55.483,94.013,55.066,93.499,55.066z M26.77,38.873  v0.784c0,0.247-0.202,0.448-0.449,0.448c-0.248,0-0.448-0.201-0.448-0.448v-0.784c0-0.136,0.064-0.253,0.161-0.336v0.657  c0,0.159,0.128,0.286,0.287,0.286c0.159,0,0.288-0.127,0.288-0.286v-0.657C26.705,38.62,26.77,38.736,26.77,38.873z M26.77,35.78  v0.783c0,0.15-0.079,0.277-0.193,0.359c-0.047-0.096-0.143-0.162-0.256-0.162s-0.209,0.066-0.255,0.162  c-0.113-0.083-0.193-0.209-0.193-0.359V35.78c0-0.136,0.064-0.254,0.161-0.336v0.613c0,0.16,0.128,0.287,0.287,0.287  c0.159,0,0.288-0.127,0.288-0.287v-0.613C26.705,35.526,26.77,35.644,26.77,35.78z M26.77,32.686v0.784  c0,0.146-0.074,0.269-0.18,0.35c-0.038-0.113-0.143-0.195-0.269-0.195s-0.23,0.082-0.269,0.195c-0.106-0.081-0.18-0.204-0.18-0.35  v-0.784c0-0.136,0.064-0.255,0.161-0.336v0.571c0,0.159,0.128,0.288,0.287,0.288c0.159,0,0.288-0.129,0.288-0.288V32.35  C26.705,32.431,26.77,32.55,26.77,32.686z M26.77,29.593v0.785c0,0.142-0.07,0.261-0.172,0.344  c-0.026-0.132-0.137-0.234-0.277-0.234s-0.251,0.102-0.275,0.234c-0.103-0.083-0.173-0.203-0.173-0.344v-0.785  c0-0.135,0.064-0.253,0.161-0.336v0.529c0,0.158,0.128,0.288,0.287,0.288c0.159,0,0.288-0.13,0.288-0.288v-0.529  C26.705,29.339,26.77,29.456,26.77,29.593z M26.77,26.5v0.784c0,0.138-0.066,0.255-0.164,0.339  c-0.009-0.152-0.131-0.271-0.285-0.271c-0.153,0-0.275,0.12-0.284,0.271c-0.098-0.083-0.164-0.201-0.164-0.339V26.5  c0-0.136,0.064-0.254,0.161-0.338v0.486c0,0.159,0.128,0.289,0.287,0.289c0.159,0,0.288-0.129,0.288-0.289v-0.486  C26.705,26.246,26.77,26.363,26.77,26.5z M26.77,23.406v0.784c0,0.136-0.064,0.254-0.161,0.336v-0.024  c0-0.159-0.129-0.287-0.288-0.287c-0.159,0-0.287,0.128-0.287,0.287v0.024c-0.097-0.082-0.161-0.201-0.161-0.336v-0.784  c0-0.136,0.064-0.255,0.161-0.336v0.442c0,0.16,0.128,0.289,0.287,0.289c0.159,0,0.288-0.129,0.288-0.289V23.07  C26.705,23.151,26.77,23.27,26.77,23.406z M26.77,20.312v0.785c0,0.137-0.064,0.255-0.161,0.336v-0.067  c0-0.159-0.129-0.288-0.288-0.288c-0.159,0-0.287,0.129-0.287,0.288v0.066c-0.097-0.081-0.161-0.199-0.161-0.335v-0.785  c0-0.136,0.064-0.254,0.161-0.336v0.4c0,0.16,0.128,0.287,0.287,0.287c0.159,0,0.288-0.127,0.288-0.287v-0.4  C26.705,20.059,26.77,20.176,26.77,20.312z M26.77,17.22v0.784c0,0.136-0.064,0.255-0.161,0.337v-0.111  c0-0.158-0.129-0.287-0.288-0.287c-0.159,0-0.287,0.129-0.287,0.287v0.111c-0.097-0.082-0.161-0.201-0.161-0.337V17.22  c0-0.136,0.064-0.254,0.161-0.336v0.355c0,0.159,0.128,0.288,0.287,0.288c0.159,0,0.288-0.129,0.288-0.288v-0.357  C26.705,16.966,26.77,17.082,26.77,17.22z M26.77,14.126v0.784c0,0.136-0.064,0.255-0.161,0.337v-0.153  c0-0.159-0.129-0.287-0.288-0.287c-0.159,0-0.287,0.128-0.287,0.287v0.153c-0.097-0.082-0.161-0.201-0.161-0.337v-0.784  c0-0.136,0.064-0.254,0.161-0.336v0.313c0,0.159,0.128,0.288,0.287,0.288c0.159,0,0.288-0.129,0.288-0.288V13.79  C26.705,13.872,26.77,13.99,26.77,14.126z M26.77,11.033v0.784c0,0.138-0.064,0.254-0.161,0.338v-0.197  c0-0.159-0.129-0.288-0.288-0.288c-0.159,0-0.287,0.129-0.287,0.288v0.197c-0.097-0.083-0.161-0.201-0.161-0.338v-0.784  c0-0.135,0.064-0.253,0.161-0.337v0.271c0,0.159,0.128,0.287,0.287,0.287c0.159,0,0.288-0.128,0.288-0.287v-0.271  C26.705,10.779,26.77,10.897,26.77,11.033z M26.77,7.94v0.784c0,0.136-0.064,0.254-0.161,0.336V8.822  c0-0.159-0.129-0.288-0.288-0.288c-0.159,0-0.287,0.129-0.287,0.288V9.06c-0.097-0.082-0.161-0.2-0.161-0.336V7.94  c0-0.136,0.064-0.254,0.161-0.338v0.229c0,0.159,0.128,0.287,0.287,0.287c0.159,0,0.288-0.127,0.288-0.287V7.602  C26.705,7.686,26.77,7.804,26.77,7.94z M26.77,4.846V5.63c0,0.137-0.064,0.255-0.161,0.337V5.685c0-0.158-0.129-0.287-0.288-0.287  c-0.159,0-0.287,0.129-0.287,0.287v0.283c-0.097-0.083-0.161-0.201-0.161-0.337V4.846c0-0.136,0.064-0.254,0.161-0.336v0.186  c0,0.158,0.128,0.287,0.287,0.287c0.159,0,0.288-0.129,0.288-0.287V4.51C26.705,4.592,26.77,4.71,26.77,4.846z M26.907,1.917  c0,0.227-0.134,0.42-0.324,0.516c-0.044-0.101-0.144-0.171-0.262-0.171c-0.117,0-0.217,0.07-0.262,0.171  c-0.189-0.097-0.323-0.289-0.323-0.516V1.748h1.17V1.917z M40.351,38.873v0.784c0,0.247-0.201,0.448-0.448,0.448  c-0.248,0-0.449-0.201-0.449-0.448v-0.784c0-0.136,0.065-0.253,0.161-0.336v0.657c0,0.159,0.128,0.286,0.288,0.286  c0.158,0,0.287-0.127,0.287-0.286v-0.657C40.286,38.62,40.351,38.736,40.351,38.873z M40.351,35.78v0.783  c0,0.15-0.079,0.277-0.192,0.359c-0.046-0.096-0.143-0.162-0.255-0.162c-0.113,0-0.21,0.066-0.256,0.162  c-0.113-0.083-0.193-0.209-0.193-0.359V35.78c0-0.136,0.065-0.254,0.161-0.336v0.613c0,0.16,0.128,0.287,0.288,0.287  c0.158,0,0.287-0.127,0.287-0.287v-0.613C40.286,35.526,40.351,35.644,40.351,35.78z M40.351,32.686v0.784  c0,0.146-0.073,0.269-0.179,0.35c-0.039-0.113-0.144-0.195-0.269-0.195c-0.127,0-0.231,0.082-0.27,0.195  c-0.106-0.081-0.18-0.204-0.18-0.35v-0.784c0-0.136,0.065-0.255,0.161-0.336v0.571c0,0.159,0.128,0.288,0.288,0.288  c0.158,0,0.287-0.129,0.287-0.288V32.35C40.286,32.431,40.351,32.55,40.351,32.686z M40.351,29.593v0.785  c0,0.142-0.069,0.261-0.171,0.344c-0.026-0.132-0.136-0.234-0.276-0.234s-0.251,0.102-0.277,0.234  c-0.103-0.083-0.172-0.203-0.172-0.344v-0.785c0-0.135,0.065-0.253,0.161-0.336v0.529c0,0.158,0.128,0.288,0.288,0.288  c0.158,0,0.287-0.13,0.287-0.288v-0.529C40.286,29.339,40.351,29.456,40.351,29.593z M40.351,26.5v0.784  c0,0.138-0.066,0.255-0.164,0.339c-0.008-0.152-0.13-0.271-0.284-0.271c-0.154,0-0.276,0.12-0.284,0.271  c-0.098-0.083-0.165-0.201-0.165-0.339V26.5c0-0.136,0.065-0.254,0.161-0.338v0.486c0,0.159,0.128,0.289,0.288,0.289  c0.158,0,0.287-0.129,0.287-0.289v-0.486C40.286,26.246,40.351,26.363,40.351,26.5z M40.351,23.406v0.784  c0,0.136-0.064,0.254-0.161,0.336v-0.024c0-0.159-0.129-0.287-0.287-0.287c-0.16,0-0.288,0.128-0.288,0.287v0.024  c-0.096-0.082-0.161-0.201-0.161-0.336v-0.784c0-0.136,0.065-0.255,0.161-0.336v0.442c0,0.16,0.128,0.289,0.288,0.289  c0.158,0,0.287-0.129,0.287-0.289V23.07C40.286,23.151,40.351,23.27,40.351,23.406z M40.351,20.312v0.785  c0,0.137-0.064,0.255-0.161,0.336v-0.067c0-0.159-0.129-0.288-0.287-0.288c-0.16,0-0.288,0.129-0.288,0.288v0.066  c-0.096-0.081-0.161-0.199-0.161-0.335v-0.785c0-0.136,0.065-0.254,0.161-0.336v0.4c0,0.16,0.128,0.287,0.288,0.287  c0.158,0,0.287-0.127,0.287-0.287v-0.4C40.286,20.059,40.351,20.176,40.351,20.312z M40.351,17.22v0.784  c0,0.136-0.064,0.255-0.161,0.337v-0.111c0-0.158-0.129-0.287-0.287-0.287c-0.16,0-0.288,0.129-0.288,0.287v0.111  c-0.096-0.082-0.161-0.201-0.161-0.337V17.22c0-0.136,0.065-0.254,0.161-0.336v0.355c0,0.159,0.128,0.288,0.288,0.288  c0.158,0,0.287-0.129,0.287-0.288v-0.357C40.286,16.966,40.351,17.082,40.351,17.22z M40.351,14.126v0.784  c0,0.136-0.064,0.255-0.161,0.337v-0.153c0-0.159-0.129-0.287-0.287-0.287c-0.16,0-0.288,0.128-0.288,0.287v0.153  c-0.096-0.082-0.161-0.201-0.161-0.337v-0.784c0-0.136,0.065-0.254,0.161-0.336v0.313c0,0.159,0.128,0.288,0.288,0.288  c0.158,0,0.287-0.129,0.287-0.288V13.79C40.286,13.872,40.351,13.99,40.351,14.126z M40.351,11.033v0.784  c0,0.138-0.064,0.254-0.161,0.338v-0.197c0-0.159-0.129-0.288-0.287-0.288c-0.16,0-0.288,0.129-0.288,0.288v0.197  c-0.096-0.083-0.161-0.201-0.161-0.338v-0.784c0-0.135,0.065-0.253,0.161-0.337v0.271c0,0.159,0.128,0.287,0.288,0.287  c0.158,0,0.287-0.128,0.287-0.287v-0.271C40.286,10.779,40.351,10.897,40.351,11.033z M40.351,7.94v0.784  c0,0.136-0.064,0.254-0.161,0.336V8.822c0-0.159-0.129-0.288-0.287-0.288c-0.16,0-0.288,0.129-0.288,0.288V9.06  c-0.096-0.082-0.161-0.2-0.161-0.336V7.94c0-0.136,0.065-0.254,0.161-0.338v0.229c0,0.159,0.128,0.287,0.288,0.287  c0.158,0,0.287-0.127,0.287-0.287V7.602C40.286,7.686,40.351,7.804,40.351,7.94z M40.351,4.846V5.63  c0,0.137-0.064,0.255-0.161,0.337V5.685c0-0.158-0.129-0.287-0.287-0.287c-0.16,0-0.288,0.129-0.288,0.287v0.283  c-0.096-0.083-0.161-0.201-0.161-0.337V4.846c0-0.136,0.065-0.254,0.161-0.336v0.186c0,0.158,0.128,0.287,0.288,0.287  c0.158,0,0.287-0.129,0.287-0.287V4.51C40.286,4.592,40.351,4.71,40.351,4.846z M40.488,1.917c0,0.227-0.134,0.42-0.324,0.516  c-0.044-0.101-0.144-0.171-0.261-0.171s-0.218,0.07-0.263,0.171c-0.189-0.097-0.323-0.289-0.323-0.516V1.748h1.171V1.917z   M53.763,38.873v0.784c0,0.247-0.199,0.448-0.447,0.448s-0.448-0.201-0.448-0.448v-0.784c0-0.136,0.064-0.253,0.16-0.336v0.657  c0,0.159,0.129,0.286,0.288,0.286s0.287-0.127,0.287-0.286v-0.657C53.698,38.62,53.763,38.736,53.763,38.873z M53.763,35.78v0.783  c0,0.15-0.078,0.277-0.192,0.359c-0.046-0.096-0.142-0.162-0.255-0.162s-0.208,0.066-0.256,0.162  c-0.114-0.083-0.192-0.209-0.192-0.359V35.78c0-0.136,0.064-0.254,0.16-0.336v0.613c0,0.16,0.129,0.287,0.288,0.287  s0.287-0.127,0.287-0.287v-0.613C53.698,35.526,53.763,35.644,53.763,35.78z M53.763,32.686v0.784c0,0.146-0.071,0.269-0.179,0.35  c-0.039-0.113-0.142-0.195-0.269-0.195s-0.23,0.082-0.269,0.195c-0.107-0.081-0.18-0.204-0.18-0.35v-0.784  c0-0.136,0.064-0.255,0.16-0.336v0.571c0,0.159,0.129,0.288,0.288,0.288s0.287-0.129,0.287-0.288V32.35  C53.698,32.431,53.763,32.55,53.763,32.686z M53.763,29.593v0.785c0,0.142-0.068,0.261-0.171,0.344  c-0.025-0.132-0.137-0.234-0.276-0.234s-0.251,0.102-0.276,0.234c-0.103-0.083-0.172-0.203-0.172-0.344v-0.785  c0-0.135,0.064-0.253,0.16-0.336v0.529c0,0.158,0.129,0.288,0.288,0.288s0.287-0.13,0.287-0.288v-0.529  C53.698,29.339,53.763,29.456,53.763,29.593z M53.763,26.5v0.784c0,0.138-0.065,0.255-0.165,0.339  c-0.007-0.152-0.13-0.271-0.282-0.271c-0.153,0-0.276,0.12-0.285,0.271c-0.098-0.083-0.163-0.201-0.163-0.339V26.5  c0-0.136,0.064-0.254,0.16-0.338v0.486c0,0.159,0.129,0.289,0.288,0.289s0.287-0.129,0.287-0.289v-0.486  C53.698,26.246,53.763,26.363,53.763,26.5z M53.763,23.406v0.784c0,0.136-0.064,0.254-0.16,0.336v-0.024  c0-0.159-0.128-0.287-0.287-0.287s-0.288,0.128-0.288,0.287v0.024c-0.096-0.082-0.16-0.201-0.16-0.336v-0.784  c0-0.136,0.064-0.255,0.16-0.336v0.442c0,0.16,0.129,0.289,0.288,0.289s0.287-0.129,0.287-0.289V23.07  C53.698,23.151,53.763,23.27,53.763,23.406z M53.763,20.312v0.785c0,0.137-0.064,0.255-0.16,0.336v-0.067  c0-0.159-0.128-0.288-0.287-0.288s-0.288,0.129-0.288,0.288v0.066c-0.096-0.081-0.16-0.199-0.16-0.335v-0.785  c0-0.136,0.064-0.254,0.16-0.336v0.4c0,0.16,0.129,0.287,0.288,0.287s0.287-0.127,0.287-0.287v-0.4  C53.698,20.059,53.763,20.176,53.763,20.312z M53.763,17.22v0.784c0,0.136-0.064,0.255-0.16,0.337v-0.111  c0-0.158-0.128-0.287-0.287-0.287s-0.288,0.129-0.288,0.287v0.111c-0.096-0.082-0.16-0.201-0.16-0.337V17.22  c0-0.136,0.064-0.254,0.16-0.336v0.355c0,0.159,0.129,0.288,0.288,0.288s0.287-0.129,0.287-0.288v-0.357  C53.698,16.966,53.763,17.082,53.763,17.22z M53.763,14.126v0.784c0,0.136-0.064,0.255-0.16,0.337v-0.153  c0-0.159-0.128-0.287-0.287-0.287s-0.288,0.128-0.288,0.287v0.153c-0.096-0.082-0.16-0.201-0.16-0.337v-0.784  c0-0.136,0.064-0.254,0.16-0.336v0.313c0,0.159,0.129,0.288,0.288,0.288s0.287-0.129,0.287-0.288V13.79  C53.698,13.872,53.763,13.99,53.763,14.126z M53.763,11.033v0.784c0,0.138-0.064,0.254-0.16,0.338v-0.197  c0-0.159-0.128-0.288-0.287-0.288s-0.288,0.129-0.288,0.288v0.197c-0.096-0.083-0.16-0.201-0.16-0.338v-0.784  c0-0.135,0.064-0.253,0.16-0.337v0.271c0,0.159,0.129,0.287,0.288,0.287s0.287-0.128,0.287-0.287v-0.271  C53.698,10.779,53.763,10.897,53.763,11.033z M53.763,7.94v0.784c0,0.136-0.064,0.254-0.16,0.336V8.822  c0-0.159-0.128-0.288-0.287-0.288s-0.288,0.129-0.288,0.288V9.06c-0.096-0.082-0.16-0.2-0.16-0.336V7.94  c0-0.136,0.064-0.254,0.16-0.338v0.229c0,0.159,0.129,0.287,0.288,0.287s0.287-0.127,0.287-0.287V7.602  C53.698,7.686,53.763,7.804,53.763,7.94z M53.763,4.846V5.63c0,0.137-0.064,0.255-0.16,0.337V5.685c0-0.158-0.128-0.287-0.287-0.287  s-0.288,0.129-0.288,0.287v0.283c-0.096-0.083-0.16-0.201-0.16-0.337V4.846c0-0.136,0.064-0.254,0.16-0.336v0.186  c0,0.158,0.129,0.287,0.288,0.287s0.287-0.129,0.287-0.287V4.51C53.698,4.592,53.763,4.71,53.763,4.846z M53.9,1.917  c0,0.227-0.132,0.42-0.323,0.516c-0.045-0.101-0.145-0.171-0.262-0.171s-0.217,0.07-0.262,0.171  c-0.191-0.097-0.323-0.289-0.323-0.516V1.748h1.17V1.917z M67.345,38.873v0.784c0,0.247-0.201,0.448-0.448,0.448  c-0.246,0-0.447-0.201-0.447-0.448v-0.784c0-0.136,0.064-0.253,0.159-0.336v0.657c0,0.159,0.129,0.286,0.288,0.286  c0.16,0,0.289-0.127,0.289-0.286v-0.657C67.282,38.62,67.345,38.736,67.345,38.873z M67.345,35.78v0.783  c0,0.15-0.079,0.277-0.192,0.359c-0.047-0.096-0.143-0.162-0.256-0.162c-0.114,0-0.208,0.066-0.256,0.162  c-0.113-0.083-0.191-0.209-0.191-0.359V35.78c0-0.136,0.064-0.254,0.159-0.336v0.613c0,0.16,0.129,0.287,0.288,0.287  c0.16,0,0.289-0.127,0.289-0.287v-0.613C67.282,35.526,67.345,35.644,67.345,35.78z M67.345,32.686v0.784  c0,0.146-0.073,0.269-0.18,0.35c-0.038-0.113-0.142-0.195-0.269-0.195s-0.23,0.082-0.27,0.195c-0.105-0.081-0.178-0.204-0.178-0.35  v-0.784c0-0.136,0.064-0.255,0.159-0.336v0.571c0,0.159,0.129,0.288,0.288,0.288c0.16,0,0.289-0.129,0.289-0.288V32.35  C67.282,32.431,67.345,32.55,67.345,32.686z M67.345,29.593v0.785c0,0.142-0.069,0.261-0.172,0.344  c-0.025-0.132-0.137-0.234-0.276-0.234c-0.141,0-0.251,0.102-0.276,0.234c-0.103-0.083-0.171-0.203-0.171-0.344v-0.785  c0-0.135,0.064-0.253,0.159-0.336v0.529c0,0.158,0.129,0.288,0.288,0.288c0.16,0,0.289-0.13,0.289-0.288v-0.529  C67.282,29.339,67.345,29.456,67.345,29.593z M67.345,26.5v0.784c0,0.138-0.066,0.255-0.163,0.339  c-0.009-0.152-0.132-0.271-0.285-0.271s-0.275,0.12-0.283,0.271c-0.099-0.083-0.164-0.201-0.164-0.339V26.5  c0-0.136,0.064-0.254,0.159-0.338v0.486c0,0.159,0.129,0.289,0.288,0.289c0.16,0,0.289-0.129,0.289-0.289v-0.486  C67.282,26.246,67.345,26.363,67.345,26.5z M67.345,23.406v0.784c0,0.136-0.062,0.254-0.159,0.336v-0.024  c0-0.159-0.129-0.287-0.289-0.287c-0.159,0-0.288,0.128-0.288,0.287v0.024c-0.095-0.082-0.159-0.201-0.159-0.336v-0.784  c0-0.136,0.064-0.255,0.159-0.336v0.442c0,0.16,0.129,0.289,0.288,0.289c0.16,0,0.289-0.129,0.289-0.289V23.07  C67.282,23.151,67.345,23.27,67.345,23.406z M67.345,20.312v0.785c0,0.137-0.062,0.255-0.159,0.336v-0.067  c0-0.159-0.129-0.288-0.289-0.288c-0.159,0-0.288,0.129-0.288,0.288v0.066c-0.095-0.081-0.159-0.199-0.159-0.335v-0.785  c0-0.136,0.064-0.254,0.159-0.336v0.4c0,0.16,0.129,0.287,0.288,0.287c0.16,0,0.289-0.127,0.289-0.287v-0.4  C67.282,20.059,67.345,20.176,67.345,20.312z M67.345,17.22v0.784c0,0.136-0.062,0.255-0.159,0.337v-0.111  c0-0.158-0.129-0.287-0.289-0.287c-0.159,0-0.288,0.129-0.288,0.287v0.111c-0.095-0.082-0.159-0.201-0.159-0.337V17.22  c0-0.136,0.064-0.254,0.159-0.336v0.355c0,0.159,0.129,0.288,0.288,0.288c0.16,0,0.289-0.129,0.289-0.288v-0.357  C67.282,16.966,67.345,17.082,67.345,17.22z M67.345,14.126v0.784c0,0.136-0.062,0.255-0.159,0.337v-0.153  c0-0.159-0.129-0.287-0.289-0.287c-0.159,0-0.288,0.128-0.288,0.287v0.153c-0.095-0.082-0.159-0.201-0.159-0.337v-0.784  c0-0.136,0.064-0.254,0.159-0.336v0.313c0,0.159,0.129,0.288,0.288,0.288c0.16,0,0.289-0.129,0.289-0.288V13.79  C67.282,13.872,67.345,13.99,67.345,14.126z M67.345,11.033v0.784c0,0.138-0.062,0.254-0.159,0.338v-0.197  c0-0.159-0.129-0.288-0.289-0.288c-0.159,0-0.288,0.129-0.288,0.288v0.197c-0.095-0.083-0.159-0.201-0.159-0.338v-0.784  c0-0.135,0.064-0.253,0.159-0.337v0.271c0,0.159,0.129,0.287,0.288,0.287c0.16,0,0.289-0.128,0.289-0.287v-0.271  C67.282,10.779,67.345,10.897,67.345,11.033z M67.345,7.94v0.784c0,0.136-0.062,0.254-0.159,0.336V8.822  c0-0.159-0.129-0.288-0.289-0.288c-0.159,0-0.288,0.129-0.288,0.288V9.06c-0.095-0.082-0.159-0.2-0.159-0.336V7.94  c0-0.136,0.064-0.254,0.159-0.338v0.229c0,0.159,0.129,0.287,0.288,0.287c0.16,0,0.289-0.127,0.289-0.287V7.602  C67.282,7.686,67.345,7.804,67.345,7.94z M67.345,4.846V5.63c0,0.137-0.062,0.255-0.159,0.337V5.685  c0-0.158-0.129-0.287-0.289-0.287c-0.159,0-0.288,0.129-0.288,0.287v0.283c-0.095-0.083-0.159-0.201-0.159-0.337V4.846  c0-0.136,0.064-0.254,0.159-0.336v0.186c0,0.158,0.129,0.287,0.288,0.287c0.16,0,0.289-0.129,0.289-0.287V4.51  C67.282,4.592,67.345,4.71,67.345,4.846z M67.482,1.917c0,0.227-0.134,0.42-0.323,0.516c-0.045-0.101-0.146-0.171-0.263-0.171  s-0.218,0.07-0.263,0.171c-0.188-0.097-0.322-0.289-0.322-0.516V1.748h1.171V1.917z"/><path fill="#000000" d="M39.558,41.396c-0.017,0.022-1.708,2.09-6.491,2.09c-4.784,0-6.475-2.067-6.49-2.087  c-0.147-0.192-0.421-0.228-0.613-0.08c-0.191,0.146-0.227,0.42-0.081,0.612c0.077,0.099,1.93,2.431,7.184,2.431  s7.106-2.332,7.183-2.431c0.146-0.19,0.111-0.461-0.079-0.609C39.981,41.174,39.707,41.208,39.558,41.396z"/><path fill="#000000" d="M66.553,41.396c-0.017,0.022-1.709,2.09-6.492,2.09c-4.784,0-6.477-2.067-6.491-2.087  c-0.146-0.192-0.42-0.228-0.612-0.08c-0.19,0.146-0.227,0.42-0.079,0.612c0.075,0.099,1.93,2.431,7.183,2.431  c5.254,0,7.106-2.332,7.183-2.431c0.146-0.19,0.11-0.461-0.08-0.609C66.975,41.174,66.702,41.208,66.553,41.396z"/><text x="-2.957" y="94.604" fill="#000000" font-size="5px" font-weight="bold" font-family="'Helvetica Neue', Helvetica, Arial-Unicode, Arial, Sans-serif">Created by Mike Wirth</text><text x="-2.957" y="99.604" fill="#000000" font-size="5px" font-weight="bold" font-family="'Helvetica Neue', Helvetica, Arial-Unicode, Arial, Sans-serif">from the Noun Project</text></svg>