<svg xmlns="http://www.w3.org/2000/svg" xmlns:xlink="http://www.w3.org/1999/xlink" version="1.1" x="0px" y="0px" viewBox="0 0 100 125" style="enable-background:new 0 0 100 100;" xml:space="preserve"><g><path d="M37.4,53c1.1,0.3,2.2-0.3,2.7-1.3l5.1-12.2l1,9.4c0.1,0.7,0,1.3-0.2,2l-4.5,13.7c-0.2,0.6,0.2,1.1,0.8,1.1h2.8   c0.4,0,0.8,0.3,0.9,0.7l2.4,14.3c0.1,0.4,0.4,0.7,0.9,0.7h4.2c0.4,0,0.8-0.3,0.9-0.7l2.4-14.3c0.1-0.4,0.4-0.7,0.9-0.7h2.9   c0.6,0,1-0.6,0.8-1.1l-4.5-13.7c-0.2-0.6-0.3-1.3-0.2-2l1-9.4l5.1,12.3c0.3,0.8,1.2,1.3,2,1.3c0.3,0,0.6-0.1,0.8-0.2   c1.1-0.5,1.6-1.7,1.2-2.9l-6.5-15.8c-0.3-0.8-1.1-1.3-2-1.3c-0.3,0-0.6,0.1-0.9,0.3c-1.7,1.1-3.7,1.7-5.9,1.7   c-2.1,0-4.2-0.6-5.9-1.7c-0.3-0.2-0.6-0.3-0.9-0.3h0c-0.9,0-1.7,0.5-2,1.3l-6.5,15.8C35.6,51.3,36.2,52.6,37.4,53z"/><circle cx="51.4" cy="25.1" r="6.4"/><circle cx="23.7" cy="25.1" r="6.4"/><path d="M29.8,33h-2.1l-4,5.8l-4-5.8h-2.1c-2.4,0-4.4,2-4.4,4.4v18.8c0,2.2,1.7,4.1,3.8,4.3l1.9,19.7c0.1,0.7,0.6,1.2,1.3,1.2h7   c0.7,0,1.2-0.5,1.3-1.2l1.9-19.7c2.1-0.3,3.8-2.1,3.8-4.3V37.3C34.1,34.9,32.2,33,29.8,33z"/><path d="M81.7,51c-0.2-0.6-0.8-0.9-1.4-0.9c-0.2,0-0.4,0.1-0.6,0.2c-1.2,0.7-2.1,1.2-3.6,1.2c-1.5,0-2.4-0.4-3.6-1.2   c-0.2-0.1-0.4-0.2-0.6-0.2h0c-0.6,0-1.2,0.4-1.4,0.9l-5,10.9c-0.3,0.8,0.1,1.8,1,2c0.8,0.2,1.6-0.2,1.9-0.9l4-8.5l-3,15.1   c-0.1,0.4,0.2,0.8,0.6,0.8h2c0.3,0,0.5,0.2,0.6,0.5l1.2,9.9c0,0.3,0.3,0.5,0.6,0.5H78c0.3,0,0.5-0.2,0.6-0.5l1.2-9.9   c0-0.3,0.3-0.5,0.6-0.5h2c0.4,0,0.7-0.4,0.6-0.8l-3-15.1l4,8.5c0.2,0.6,0.8,0.9,1.4,0.9c0.2,0,0.4,0,0.6-0.1c0.8-0.3,1.1-1.2,0.8-2   L81.7,51z"/><circle cx="76.1" cy="45" r="4.5"/></g><text x="0" y="115" fill="#000000" font-size="5px" font-weight="bold" font-family="'Helvetica Neue', Helvetica, Arial-Unicode, Arial, Sans-serif">Created by mikicon</text><text x="0" y="120" fill="#000000" font-size="5px" font-weight="bold" font-family="'Helvetica Neue', Helvetica, Arial-Unicode, Arial, Sans-serif">from the Noun Project</text></svg>