<svg xmlns="http://www.w3.org/2000/svg" xmlns:xlink="http://www.w3.org/1999/xlink" version="1.1" x="0px" y="0px" viewBox="0 0 90 90" enable-background="new 0 0 90 90" xml:space="preserve"><path d="M63,43c-1.1,0-2.1,0.3-2.9,0.8c-0.9-1.9-2.8-3.2-5-3.2c-1.1,0-2.1,0.3-2.9,0.8c-0.9-1.9-2.8-3.2-5-3.2  c-0.8,0-1.7,0.2-2.4,0.5v-15c0-3.1-2.5-5.5-5.5-5.5s-5.5,2.5-5.5,5.5v25.1l-1.7-3.5c-0.8-2.1-2.9-3.6-5.2-3.6  c-0.6,0-1.3,0.1-1.9,0.3c-2.9,1-4.4,4.2-3.3,7.1c0,0,0,0.1,0.1,0.1l11.5,24.4c0,0.1,0.1,0.1,0.1,0.2c1.2,1.8,2.6,3.4,4.3,4.8  c0.1,0.1,0.2,0.1,0.3,0.2l0,0c0.1,0.1,0.1,0.1,0.2,0.2c3.3,2.4,7.2,3.7,11.3,3.7c10.2,0,18.6-8,19-18.1c0,0,0-0.1,0-0.2  c0-0.3,0-0.6,0-0.9c0-0.1,0-0.1,0-0.2l0-0.2c0-0.2,0-0.3,0-0.5V48.5C68.6,45.5,66.1,43,63,43z M49.5,79.6c-3.4,0-6.6-1-9.3-3  L40,76.4c-0.2-0.2-0.4-0.3-0.6-0.4c-1.3-1.1-2.4-2.3-3.3-3.7L24.7,48c-0.2-0.6-0.2-1.2,0.1-1.8c0.3-0.6,0.7-1,1.3-1.2  c1.2-0.4,2.6,0.2,3,1.4c0,0,0,0.1,0.1,0.1l4.7,10c0.3,0.7,1.1,1,1.8,0.9c0.7-0.2,1.2-0.8,1.2-1.5V23.7c0-1.3,1.1-2.4,2.4-2.4  s2.4,1.1,2.4,2.4v20c0,0.9,0.7,1.6,1.6,1.6c0.9,0,1.6-0.7,1.6-1.6c0-1.3,1.1-2.4,2.4-2.4c1.3,0,2.4,1.1,2.4,2.4v2.4  c0,0.9,0.7,1.6,1.6,1.6c0.9,0,1.6-0.7,1.6-1.6c0-1.3,1.1-2.4,2.4-2.4s2.4,1.1,2.4,2.4v2.4c0,0.9,0.7,1.6,1.6,1.6  c0.9,0,1.6-0.7,1.6-1.6c0-1.3,1.1-2.4,2.4-2.4c1.3,0,2.4,1.1,2.4,2.4l0,14.3l0,0.4c0,0.2,0,0.3,0,0.5c0,0.3,0,0.5,0,0.8  C64.9,72.9,58,79.6,49.5,79.6z"></path><path d="M28.4,18.5c-0.4,0.8-0.1,1.7,0.7,2.1c0.8,0.4,1.7,0.1,2.1-0.7c1.5-3,4.5-4.9,7.8-4.9c3.4,0,6.4,1.9,7.8,4.9  c0.3,0.6,0.8,0.9,1.4,0.9c0.2,0,0.5-0.1,0.7-0.2c0.8-0.4,1.1-1.3,0.7-2.1c-2-4.1-6.2-6.7-10.7-6.7C34.6,11.8,30.4,14.4,28.4,18.5z"></path></svg>