<svg xmlns="http://www.w3.org/2000/svg" xmlns:xlink="http://www.w3.org/1999/xlink" version="1.1" x="0px" y="0px" viewBox="0 0 100 125" enable-background="new 0 0 100 100" xml:space="preserve"><g><path d="M93.7,17.6H6.3c-0.7,0-1.2,0.5-1.2,1.2v62.4c0,0.7,0.5,1.2,1.2,1.2s1.2-0.5,1.2-1.2V20h12.9c0,0,0,0,0,0v47.6   c-0.1,0-0.3-0.1-0.4-0.1c-0.2,0-1,0.1-1,1.3c0,2.8,3.2,4.9,7.4,4.9c4.1,0,7.4-2.2,7.4-4.9c0-1.2-0.8-1.3-1-1.3   c-0.2,0-0.4,0.1-0.5,0.1V20c0,0,0,0,0,0h30.3c0,0,0,0,0,0v21.8c-0.5,0.4-0.8,0.9-0.8,1.6c0,0.2,0,0.4,0.1,0.6   c-8.5,0.9-15.2,8.1-15.2,16.9c0,9.4,7.6,17,17,17c9.4,0,17-7.6,17-17c0-8.7-6.6-15.9-15-16.9c0.1-0.2,0.1-0.4,0.1-0.6   c0-0.7-0.4-1.3-1-1.7V20c0,0,0,0,0,0h27.6v61.2c0,0.7,0.5,1.2,1.2,1.2c0.7,0,1.2-0.5,1.2-1.2V18.8C94.9,18.1,94.3,17.6,93.7,17.6z    M70.3,62c-0.8,2.8-3.4,4.7-6.3,4.7c-3.6,0-6.6-3-6.6-6.6c0-0.4,0-0.8,0.1-1.2c0.7-2.4,2.8-4.2,5.3-4.6v0.2c0,0.6,0.5,1.1,1.1,1.1   c0.6,0,1.1-0.5,1.1-1.1v-0.2c3.1,0.5,5.5,3.2,5.5,6.5C70.4,61.2,70.3,61.6,70.3,62z M75.4,50.5l-2,1.7c-0.2,0.2-0.3,0.5-0.1,0.8   c0.1,0.1,0.3,0.2,0.4,0.2c0.1,0,0.2,0,0.3-0.1l2-1.7c0.3,0.4,0.6,0.9,0.9,1.3L74.7,54c-0.3,0.2-0.3,0.5-0.2,0.7   c0.1,0.2,0.3,0.3,0.5,0.3c0.1,0,0.2,0,0.3-0.1l2.3-1.3c0.3,0.5,0.5,1,0.7,1.5L75.8,56c-0.3,0.1-0.4,0.4-0.3,0.7   c0.1,0.2,0.3,0.4,0.5,0.4c0.1,0,0.1,0,0.2,0l2.5-0.9c0.2,0.5,0.3,1,0.4,1.6l-2.6,0.5c-0.3,0.1-0.5,0.3-0.4,0.6   c0,0.3,0.3,0.5,0.5,0.5c0,0,0.1,0,0.1,0l2.6-0.5c0.1,0.5,0.1,1.1,0.1,1.6h-2.6c-0.3,0-0.5,0.2-0.5,0.5c0,0.3,0.2,0.5,0.5,0.5h2.6   c0,0.5-0.1,1.1-0.1,1.6l-2.6-0.5c-0.3-0.1-0.6,0.1-0.6,0.4c-0.1,0.3,0.1,0.6,0.4,0.6l2.6,0.5c-0.1,0.5-0.3,1.1-0.4,1.6l-2.5-0.9   c-0.3-0.1-0.6,0-0.7,0.3c-0.1,0.3,0,0.6,0.3,0.7l2.5,0.9c-0.2,0.5-0.4,1-0.7,1.5L75.3,67c-0.3-0.2-0.6-0.1-0.7,0.2   c-0.2,0.3-0.1,0.6,0.2,0.7l2.3,1.3c-0.3,0.5-0.6,0.9-0.9,1.3l-2-1.7c-0.2-0.2-0.6-0.2-0.8,0.1c-0.2,0.2-0.2,0.6,0.1,0.8l2,1.7   c-0.4,0.4-0.7,0.8-1.2,1.2l-1.7-2c-0.2-0.2-0.5-0.3-0.8-0.1c-0.2,0.2-0.3,0.5-0.1,0.8l1.7,2c-0.4,0.3-0.9,0.6-1.3,0.9l-1.3-2.3   c-0.2-0.3-0.5-0.4-0.7-0.2c-0.3,0.2-0.3,0.5-0.2,0.7l1.3,2.3c-0.5,0.3-1,0.5-1.5,0.7L68.7,73c-0.1-0.3-0.4-0.4-0.7-0.3   c-0.3,0.1-0.4,0.4-0.3,0.7l0.9,2.5c-0.5,0.2-1,0.3-1.6,0.4l-0.5-2.6c-0.1-0.3-0.3-0.5-0.6-0.4c-0.3,0.1-0.5,0.3-0.4,0.6l0.5,2.6   c-0.5,0.1-1.1,0.1-1.6,0.1v-2.6c0-0.3-0.2-0.5-0.5-0.5c-0.3,0-0.5,0.2-0.5,0.5v2.6c-0.5,0-1.1-0.1-1.6-0.1l0.5-2.6   c0.1-0.3-0.1-0.6-0.4-0.6c-0.3-0.1-0.6,0.1-0.6,0.4l-0.5,2.6C60,76.1,59.5,76,59,75.8l0.9-2.5c0.1-0.3,0-0.6-0.3-0.7   c-0.3-0.1-0.6,0-0.7,0.3l-0.9,2.5c-0.5-0.2-1-0.4-1.5-0.7l1.3-2.3c0.2-0.3,0.1-0.6-0.2-0.7c-0.3-0.2-0.6-0.1-0.7,0.2l-1.3,2.3   c-0.5-0.3-0.9-0.6-1.3-0.9l1.7-2c0.2-0.2,0.2-0.6-0.1-0.8c-0.2-0.2-0.6-0.2-0.8,0.1l-1.7,2c-0.4-0.4-0.8-0.7-1.2-1.2l2-1.7   c0.2-0.2,0.3-0.5,0.1-0.8c-0.2-0.2-0.5-0.3-0.8-0.1l-2,1.7c-0.3-0.4-0.6-0.9-0.9-1.3l2.3-1.3c0.3-0.2,0.3-0.5,0.2-0.7   c-0.2-0.3-0.5-0.4-0.7-0.2L50,68.3c-0.3-0.5-0.5-1-0.7-1.5l2.5-0.9c0.3-0.1,0.4-0.4,0.3-0.7c-0.1-0.3-0.4-0.4-0.7-0.3l-2.5,0.9   c-0.2-0.5-0.3-1-0.4-1.6l2.6-0.5c0.3-0.1,0.5-0.3,0.4-0.6c-0.1-0.3-0.3-0.5-0.6-0.4l-2.6,0.5c-0.1-0.5-0.1-1.1-0.1-1.6h2.6   c0.3,0,0.5-0.2,0.5-0.5c0-0.3-0.2-0.5-0.5-0.5h-2.6c0-0.5,0.1-1.1,0.1-1.6l2.6,0.5c0,0,0.1,0,0.1,0c0.3,0,0.5-0.2,0.5-0.5   c0.1-0.3-0.1-0.6-0.4-0.6l-2.6-0.5c0.1-0.5,0.3-1.1,0.4-1.6l2.5,0.9c0.1,0,0.1,0,0.2,0c0.2,0,0.4-0.1,0.5-0.4   c0.1-0.3,0-0.6-0.3-0.7l-2.5-0.9c0.2-0.5,0.4-1,0.7-1.5l2.3,1.3c0.1,0,0.2,0.1,0.3,0.1c0.2,0,0.4-0.1,0.5-0.3   c0.2-0.3,0.1-0.6-0.2-0.7l-2.3-1.3c0.3-0.5,0.6-0.9,0.9-1.3l2,1.7c0.1,0.1,0.2,0.1,0.3,0.1c0.2,0,0.3-0.1,0.4-0.2   c0.2-0.2,0.2-0.6-0.1-0.8l-2-1.7c0.4-0.4,0.7-0.8,1.2-1.2l1.7,2c0.1,0.1,0.3,0.2,0.4,0.2c0.1,0,0.2,0,0.3-0.1   c0.2-0.2,0.3-0.5,0.1-0.8l-1.7-2c0.4-0.3,0.9-0.6,1.3-0.9l1.3,2.3c0.1,0.2,0.3,0.3,0.5,0.3c0.1,0,0.2,0,0.3-0.1   c0.3-0.2,0.3-0.5,0.2-0.7l-1.3-2.3c0.5-0.3,1-0.5,1.5-0.7l0.9,2.5c0.1,0.2,0.3,0.4,0.5,0.4c0.1,0,0.1,0,0.2,0   c0.3-0.1,0.4-0.4,0.3-0.7L59,46.1c0.5-0.2,1-0.3,1.6-0.4l0.5,2.6c0,0.3,0.3,0.5,0.5,0.5c0,0,0.1,0,0.1,0c0.3-0.1,0.5-0.3,0.4-0.6   l-0.5-2.6c0.4,0,0.7-0.1,1.1-0.1v7.8c-2.9,0.4-5.5,2.5-6.3,5.4l0,0.1c0,0.1,0,0.1,0,0.2l0,0C56.1,59.5,56,60.3,56,61   c0,4.2,3.5,7.7,7.7,7.7c3.7,0,6.9-2.6,7.6-6.2l0,0c0-0.1,0-0.1,0.1-0.1l0-0.1c0.1-0.5,0.1-1,0.1-1.5c0-3.9-2.9-7.1-6.6-7.6v-7.8   c0.4,0,0.7,0.1,1.1,0.1l-0.5,2.6c-0.1,0.3,0.1,0.6,0.4,0.6c0,0,0.1,0,0.1,0c0.3,0,0.5-0.2,0.5-0.5l0.5-2.6c0.5,0.1,1.1,0.3,1.6,0.4   l-0.9,2.5c-0.1,0.3,0,0.6,0.3,0.7c0.1,0,0.1,0,0.2,0c0.2,0,0.4-0.1,0.5-0.4l0.9-2.5c0.5,0.2,1,0.4,1.5,0.7l-1.3,2.3   c-0.2,0.3-0.1,0.6,0.2,0.7c0.1,0,0.2,0.1,0.3,0.1c0.2,0,0.4-0.1,0.5-0.3l1.3-2.3c0.5,0.3,0.9,0.6,1.3,0.9l-1.7,2   c-0.2,0.2-0.2,0.6,0.1,0.8c0.1,0.1,0.2,0.1,0.3,0.1c0.2,0,0.3-0.1,0.4-0.2l1.7-2C74.6,49.7,75,50.1,75.4,50.5z M30.5,20v48.7   c-1.1,0.7-2.5,1.6-4,1.6c-1.6,0-3.1-0.9-4.2-1.7V20c0,0,0,0,0,0L30.5,20C30.5,20,30.5,20,30.5,20z"/></g><text x="0" y="115" fill="#000000" font-size="5px" font-weight="bold" font-family="'Helvetica Neue', Helvetica, Arial-Unicode, Arial, Sans-serif">Created by Steph Szabo</text><text x="0" y="120" fill="#000000" font-size="5px" font-weight="bold" font-family="'Helvetica Neue', Helvetica, Arial-Unicode, Arial, Sans-serif">from the Noun Project</text></svg>