<svg xmlns="http://www.w3.org/2000/svg" xmlns:xlink="http://www.w3.org/1999/xlink" version="1.1" x="0px" y="0px" viewBox="0 0 100 125" style="enable-background:new 0 0 100 100;" xml:space="preserve"><path d="M85.3,85.2v-65h4.5v-2h-4.5v-4.4h-2v4.4H64.2v-2.9h-1v2.9H40.7v-2.9h-1v2.9H20.5v-4.4h-2v4.4H14v2h4.5v65H6v1h17.9v-1h-3.4  v-65h19.1v40.9h-5.2v5.4h5.2V68h1v-1.5h22.5V68h1v-1.5h5.2v-5.4h-5.2V20.2h19.1v65H80l1.4-3.7l-0.9-0.3L79,85.2H78v-7.8h-1v7.8h-0.3  l-2.3-4.1l-0.9,0.5l2,3.7H43.9c-0.3-1-1.5-1.7-3-1.7s-2.7,0.7-3,1.7H36c-0.4-1.7-2.4-2.9-4.9-2.9c-2.7,0-4.9,1.5-5,3.4l1,0  c0-1.4,1.8-2.5,4-2.5c2.1,0,3.9,1.1,4,2.5l0,0.5h3.7l0-0.5c0-0.6,0.9-1.2,2.1-1.2s2.1,0.6,2.1,1.2l0,0.5h51v-1H85.3z M68.4,65.5  H35.4v-3.4h32.9V65.5z M63.2,61.2H40.7V20.2h22.5V61.2z"/><text x="0" y="115" fill="#000000" font-size="5px" font-weight="bold" font-family="'Helvetica Neue', Helvetica, Arial-Unicode, Arial, Sans-serif">Created by Iulia Ardeleanu</text><text x="0" y="120" fill="#000000" font-size="5px" font-weight="bold" font-family="'Helvetica Neue', Helvetica, Arial-Unicode, Arial, Sans-serif">from the Noun Project</text></svg>